<svg xmlns="http://www.w3.org/2000/svg" viewBox="0 0 64 64" id="chicken">
  <path fill="#d33d48" d="M28 51V17h20v34H28z"></path>
  <path fill="#d85061" d="M28 17h14v16a14 14 0 0 1-14 14V17Z"></path>
  <path fill="#e5e5e5" d="M30 13h16v4H30z"></path>
  <path fill="#f2f2f2" d="M42 13h-8l.2-1L36 3h4l1.8 9 .2 1z"></path>
  <path fill="#dbdad9" d="M42 13h-8l.2-1h7.6l.2 1z"></path>
  <path fill="#e56378" d="M28 19a2.015 2.015 0 0 1 2 2v8a2.006 2.006 0 0 1-2 2Z"></path>
  <path fill="#f2f2f2" d="m36 41 10.62-2.377a4 4 0 1 0 5.808-4.37 3.993 3.993 0 1 0-7.115-1.485L31 36Z"></path>
  <path fill="#f28d4e" d="M13.319 29.346a3.13 3.13 0 0 0-1.6 2.641c-.036.006-.071.005-.107.013a2.343 2.343 0 0 0-1.777 2.8 3.119 3.119 0 0 0-1.425 5.352 2.333 2.333 0 0 0 .922 4.13 3.1 3.1 0 0 0 4.493 3.854 2.309 2.309 0 0 0 .005.979 2.331 2.331 0 0 0 3.586 1.434 3.113 3.113 0 0 0 5.421.495 2.315 2.315 0 0 0 3.486-.778 3.106 3.106 0 0 0 4.641-3.212 2.335 2.335 0 0 0 3.041-3.423 3.11 3.11 0 0 0 2.089-5.662 2.313 2.313 0 0 0-.778-3.485 3.116 3.116 0 0 0-3.371-4.623 3.177 3.177 0 0 0-.749.284c-.007-.038-.005-.075-.014-.113a2.343 2.343 0 0 0-2.8-1.777 2.319 2.319 0 0 0-.745.318c-.008-.049-.006-.1-.017-.148a3.123 3.123 0 0 0-5.945-.488 2.366 2.366 0 0 0-1.166-.811Z"></path>
  <path fill="#f2f2f2" d="M3 51h58v4H3z"></path>
  <path fill="#d8d8d8" d="m57 55-2 6H9l-.67-2L7 55h50z"></path>
  <path fill="#e2773b" d="M12.526 38.98a3.509 3.509 0 0 1-2.651-1.223l1.518-1.3a1.462 1.462 0 0 0 .216.207 1.5 1.5 0 0 0 2.107-.259 1.48 1.48 0 0 0 .317-.878l2 .057a3.5 3.5 0 0 1-3.073 3.372 3.536 3.536 0 0 1-.434.024zM28.5 46a3.5 3.5 0 1 1 2.3-6.134l-1.319 1.5A1.5 1.5 0 1 0 28.5 44zm-10.854 3a3.5 3.5 0 0 1-2.305-.866l1.318-1.5A1.5 1.5 0 1 0 17.646 44v-2a3.5 3.5 0 0 1 0 7zm10.505-12.42a3.581 3.581 0 0 1-.591-.05 3.5 3.5 0 0 1-1.628-6.164l1.268 1.551a1.5 1.5 0 1 0 2.428 1.412l1.973.334a3.5 3.5 0 0 1-3.445 2.917z"></path>
  <path fill="#d33d48" d="M22 26a1.891 1.891 0 0 1-.18.82A2 2 0 0 1 20 28v7.5a1.251 1.251 0 0 1-.07.43A1.5 1.5 0 0 1 17 35.5V31a3 3 0 0 1-3-3 3.006 3.006 0 0 1 3-3 2.915 2.915 0 0 1 1.15.23 2.03 2.03 0 0 1 .96-1.02l.06-.03A1.9 1.9 0 0 1 20 24a2.006 2.006 0 0 1 2 2Z"></path>
  <path fill="#dd4e5f" d="M22 26a1.891 1.891 0 0 1-.18.82A2 2 0 0 1 20 28v7.5a1.251 1.251 0 0 1-.07.43 1.251 1.251 0 0 1-.43.07 1.5 1.5 0 0 1-1.5-1.5V30a3 3 0 0 1-3-3 2.955 2.955 0 0 1 .44-1.56A2.955 2.955 0 0 1 17 25a2.915 2.915 0 0 1 1.15.23 2.03 2.03 0 0 1 .96-1.02c.01.01.03.01.04.02.01-.02.02-.03.02-.05A1.9 1.9 0 0 1 20 24a2.006 2.006 0 0 1 2 2Z"></path>
  <path fill="#fffefd" d="M24 51a2.015 2.015 0 0 1-2 2h-8a2.006 2.006 0 0 1-2-2zm8 0a2.015 2.015 0 0 1-2 2h-2a2.006 2.006 0 0 1-2-2z"></path>
  <path fill="#e5e5e5" d="M51 55a3.995 3.995 0 0 1-4 4H8.33L7 55Z"></path>
  <rect width="8" height="2" x="31" y="13" fill="#f4f2f2" rx="1"></rect>
  <path d="M61 50H49v-6h-2v6H32.224a4.138 4.138 0 0 0 .71-1.634 3.343 3.343 0 0 0 3.5-3.855 4.126 4.126 0 0 0 2.956-3.249l6.57-1.467a5 5 0 1 0 7.8-5.839 4.988 4.988 0 0 0-5.63-6.939 5.008 5.008 0 0 0-3.91 4.97l-6.512 1.455a4.044 4.044 0 0 0-.054-1.429 4.124 4.124 0 0 0-4.859-3.142 3.352 3.352 0 0 0-3.529-1.612A4.109 4.109 0 0 0 22.99 25.9a2.995 2.995 0 0 0-5.282-1.838 3.96 3.96 0 0 0-4.576 4.9 4.156 4.156 0 0 0-1.323 2.244A3.36 3.36 0 0 0 9.781 34.1a4.122 4.122 0 0 0-1.7 6.026 3.32 3.32 0 0 0 1.057 4.744 4.122 4.122 0 0 0 4.769 4.669 3.354 3.354 0 0 0 .177.461H3a1 1 0 0 0-1 1v4a1 1 0 0 0 1 1h3.28l1.772 5.316A1 1 0 0 0 9 62h46a1 1 0 0 0 .948-.684L57.72 56H61a1 1 0 0 0 1-1v-4a1 1 0 0 0-1-1zM45.53 33.743a1 1 0 0 0 .758-1.193 3 3 0 1 1 5.333 1.111 1 1 0 0 0 .328 1.47 2.989 2.989 0 0 1-.771 5.549 3 3 0 0 1-3.578-2.275 1 1 0 0 0-1.194-.758l-7.163 1.6a4.081 4.081 0 0 0-.883-1.5 3.275 3.275 0 0 0 0-2.4zM17 26a1.992 1.992 0 0 1 .769.154 1 1 0 0 0 1.308-.539A1 1 0 1 1 20 27a1 1 0 0 0-1 1v7.5a.5.5 0 0 1-1 0V31a1 1 0 0 0-1-1 2 2 0 0 1 0-4zm1.7 23.589a.989.989 0 0 0-.834.128 1.33 1.33 0 0 1-2.054-.819 1.321 1.321 0 0 1 0-.56 1 1 0 0 0-1.5-1.058 2.054 2.054 0 0 1-2.232-.013 2.113 2.113 0 0 1-.821-2.6 1 1 0 0 0-.7-1.358 1.333 1.333 0 0 1-.529-2.365 1 1 0 0 0 .061-1.529 2.119 2.119 0 0 1 .968-3.64 1 1 0 0 0 .758-1.193 1.337 1.337 0 0 1 .941-1.591c.026 0 .1-.01.127-.014a1 1 0 0 0 .84-.957 2.127 2.127 0 0 1 .445-1.217 3.99 3.99 0 0 0 1.83 1.07V35.5a2.5 2.5 0 0 0 5 0v-6.671a2.99 2.99 0 0 0 .757-.4 1.5 1.5 0 0 1 .129.123 1 1 0 0 0 1.718-.237 2.121 2.121 0 0 1 3.107-1 2.093 2.093 0 0 1 .924 1.271c0 .032.014.133.02.164a1 1 0 0 0 1.525.668 1.324 1.324 0 0 1 .422-.185 1.34 1.34 0 0 1 1.591.945c0 .031.013.116.019.147a1 1 0 0 0 .543.721.993.993 0 0 0 .9-.01 2.158 2.158 0 0 1 .506-.2 2.116 2.116 0 0 1 2.29 3.142 1 1 0 0 0 .4 1.391 1.316 1.316 0 0 1 .446 1.992 1 1 0 0 0 .227 1.43 2.118 2.118 0 0 1-.737 3.818 2.151 2.151 0 0 1-.682.027.982.982 0 0 0-.973.5 1 1 0 0 0 .068 1.094 1.339 1.339 0 0 1-.783 2.111 1.315 1.315 0 0 1-.958-.153 1 1 0 0 0-1.485 1.034 2.107 2.107 0 0 1-3.148 2.178 1 1 0 0 0-1.391.4 1.441 1.441 0 0 1-.156.194h-7.054a.981.981 0 0 0-.525-.405zM54.279 60H9.721l-1.333-4h47.224zM60 54H4v-2h56zM46 12h-3.18l-1.84-9.2A1 1 0 0 0 40 2h-4a1 1 0 0 0-.98.8L33.18 12H30a1 1 0 0 0-1 1v3h-1a1 1 0 0 0-1 1v6h2v-5h18v7h2v-8a1 1 0 0 0-1-1h-1v-3a1 1 0 0 0-1-1zm-9.181-8h2.362l1.6 8H35.22zM31 16v-2h14v2z"></path>
</svg>
