<svg xmlns="http://www.w3.org/2000/svg" viewBox="0 0 512 512" id="delivery-boy">
  <path fill="#f96263" d="M64.44 501.999V387.715a80 80 0 0 1 43.484-71.18l80.022-41.052a80 80 0 0 1 36.516-8.82h63.076a80 80 0 0 1 36.516 8.82l80.022 41.052a80 80 0 0 1 43.483 71.18v114.284a10 10 0 0 1-10 10H74.44a10 10 0 0 1-10-10Z"></path>
  <path fill="#f9beac" d="M306.245 296.701 256 294.083l-50.798 2.618v-67.563h101.043v67.563z"></path>
  <path fill="#e58a7b" d="M205.202 244.88a52.04 52.04 0 0 0 6.591 6.144l26.475 20.687a39.662 39.662 0 0 0 24.42 8.41h2.494a39.662 39.662 0 0 0 24.42-8.41l16.643-13.004v-29.569H205.202Z"></path>
  <path fill="#f9beac" d="M204.793 231.894a52.012 52.012 0 0 1-19.987-40.984v-72.397a31.873 31.873 0 0 1 31.873-31.873h80.513a31.873 31.873 0 0 1 31.873 31.873v72.397a52.012 52.012 0 0 1-19.988 40.984l-26.475 20.687a39.662 39.662 0 0 1-24.42 8.41h-2.494a39.662 39.662 0 0 1-24.42-8.41Z"></path>
  <path fill="#e58a7b" d="M329.064 170.947v-44.872a19.63 19.63 0 0 1 19.3 23.219l-1.234 6.638a18.375 18.375 0 0 1-18.066 15.015zm-144.258 0v-44.872a19.63 19.63 0 0 0-19.3 23.219l1.234 6.638a18.375 18.375 0 0 0 18.066 15.015zm72.141 56.558c-.301 0-.602-.004-.905-.01a35.144 35.144 0 0 1-12.502-2.637 3.5 3.5 0 1 1 2.658-6.475 28.167 28.167 0 0 0 10.022 2.113 28.618 28.618 0 0 0 11.454-2.114 3.5 3.5 0 1 1 2.654 6.477 35.092 35.092 0 0 1-13.38 2.646zm11.89-42.392v3.139a11.902 11.902 0 0 1-11.902 11.902 11.902 11.902 0 0 1-11.902-11.902v-3.139a3 3 0 0 1 3-3h17.804a3 3 0 0 1 3 3z"></path>
  <path fill="#343c4a" d="M300.581 152.346a3.487 3.487 0 0 1-1.326-.262 28.539 28.539 0 0 0-11.454-2.114 28.162 28.162 0 0 0-10.022 2.113 3.5 3.5 0 1 1-2.658-6.476 35.22 35.22 0 0 1 26.788 0 3.5 3.5 0 0 1-1.328 6.74zm-12.065 18.291a3.5 3.5 0 0 1-3.5-3.5v-7.678a3.5 3.5 0 0 1 7 0v7.678a3.5 3.5 0 0 1-3.5 3.5zm-52.967-18.29a3.487 3.487 0 0 1-1.326-.264 28.566 28.566 0 0 0-11.454-2.113 28.162 28.162 0 0 0-10.022 2.113 3.5 3.5 0 1 1-2.658-6.476 35.22 35.22 0 0 1 26.788 0 3.5 3.5 0 0 1-1.328 6.74zm-12.065 18.29a3.5 3.5 0 0 1-3.5-3.5v-7.678a3.5 3.5 0 0 1 7 0v7.678a3.5 3.5 0 0 1-3.5 3.5zm105.58-9.173h-4a10 10 0 0 1-10-10v-45h14zm-144.258 0h4a10 10 0 0 0 10-10v-52h-14z"></path>
  <circle cx="256.938" cy="19.619" r="16.12" fill="#f96263"></circle>
  <path fill="#57aafe" d="M239.003 26.84h35.87a55.782 55.782 0 0 1 55.781 55.781v28.898H183.221V82.621a55.782 55.782 0 0 1 55.782-55.781Z"></path>
  <path fill="#f96263" d="m306.589 134.15-29.35-6.318a96.474 96.474 0 0 0-40.603 0l-29.35 6.317a18.335 18.335 0 0 1-20.6-10.45l-3.861-8.649a8.744 8.744 0 0 1 5.3-11.896 225.216 225.216 0 0 1 70.438-10.783c23.447.17 51.938 7.081 66.608 11.113a8.753 8.753 0 0 1 5.683 12.007l-3.664 8.208a18.335 18.335 0 0 1-20.601 10.45Z"></path>
  <path fill="#d34342" d="M264.956 414.53h-17.911a6 6 0 0 1-6-6V296.7L256 294.083l14.956 2.618V408.53a6 6 0 0 1-6 6Z"></path>
  <path fill="#57aafe" d="M306.861 259.663 256 294.083l23.689 25.435a15 15 0 0 0 23.627-2.163l14.576-44.85zm-101.722 0L256 294.083l-23.689 25.435a15 15 0 0 1-23.627-2.163l-14.576-44.85z"></path>
  <path fill="#f9beac" d="M64.44 461.394h63.68v50.605H74.44a10 10 0 0 1-10-10v-40.605Z"></path>
  <path fill="#57aafe" d="M64.44 449.902h63.68v22.982H64.44z"></path>
  <circle cx="256" cy="333.499" r="3.5" fill="#343c4a"></circle>
  <circle cx="256" cy="361.499" r="3.5" fill="#343c4a"></circle>
  <circle cx="256" cy="389.499" r="3.5" fill="#343c4a"></circle>
  <path fill="#d34342" d="M128.12 511.999a3.5 3.5 0 0 1-3.5-3.5v-73.174a3.5 3.5 0 0 1 7 0V508.5a3.5 3.5 0 0 1-3.5 3.5Z"></path>
  <path fill="#ffd597" d="M316.295 381.054H494.5v115.945a15 15 0 0 1-15 15H331.295a15 15 0 0 1-15-15V381.054Z"></path>
  <path fill="#ffbc5b" d="M316.295 381.054H494.5v14H316.295z"></path>
  <rect width="206.205" height="32.945" x="302.295" y="348.108" fill="#ffd597" rx="7"></rect>
  <path fill="#e88f37" d="M387.965 381.054h34.866v130.945h-34.866z"></path>
  <path fill="#e57f23" d="M387.965 381.054h34.866v14h-34.866z"></path>
</svg>
